<svg width="447" height="448" viewBox="0 0 447 448" fill="none" xmlns="http://www.w3.org/2000/svg">
<path fill-rule="evenodd" clip-rule="evenodd" d="M262.943 1.22744C259.368 2.03244 252.664 4.55644 248.045 6.83644C240.613 10.5064 237.762 12.8294 223.25 27.0484L206.853 43.1134L196.627 32.9224C190.55 26.8664 185.192 22.3934 183.422 21.8994C176.359 19.9274 169.943 24.7774 169.943 32.0894C169.943 36.1034 170.424 36.6514 199.429 65.7044L228.915 95.2394H233.511C237.439 95.2394 238.531 94.7644 241.025 91.9734C243.253 89.4804 243.943 87.7294 243.943 84.5704C243.943 80.6464 243.374 79.8564 232.934 69.2744L221.925 58.1164L236.817 43.4304C253.133 27.3394 258.752 23.7294 270.791 21.6094C291.979 17.8774 313.748 33.6184 317.935 55.6994C318.516 58.7614 318.943 79.5934 318.943 104.875V148.739H302.943H286.943V131.643C286.943 117.488 286.657 114.063 285.278 111.729C281.86 105.943 273.623 104.905 268.866 109.662L265.943 112.585V130.662V148.739H238.911C209.909 148.739 206.847 149.182 203.574 153.856C201.482 156.842 201.482 162.636 203.574 165.622C207.111 170.672 207.918 170.739 265.411 170.739H318.943V191.739V212.739H241.235H163.527L113.485 162.903C55.5486 105.206 59.5476 108.24 41.4426 108.239C31.1466 108.239 30.0116 108.443 23.7016 111.432C14.9546 115.576 7.75263 122.783 3.69563 131.453C-2.36437 144.403 -0.840369 161.843 7.30363 172.739C13.2896 180.749 101.713 277.122 106.518 280.874C114.164 286.845 118.534 287.739 140.058 287.739H158.943V335.65V383.561L138.693 383.928C119.628 384.273 118.15 384.438 113.443 386.743C107.074 389.861 101.075 395.857 97.9366 402.239C94.5606 409.105 94.4736 422.003 97.7576 428.77C101.184 435.828 105.249 440.085 112.118 443.81L118.443 447.239H217.443H316.443L322.104 444.459C328.322 441.406 333.618 436.151 337.147 429.534C339.072 425.924 339.437 423.724 339.437 415.739C339.437 407.754 339.072 405.554 337.147 401.944C333.618 395.327 328.322 390.072 322.104 387.019C316.567 384.3 316.001 384.232 296.193 383.915L275.943 383.592V335.665V287.739H283.509C287.67 287.739 292.057 288.238 293.259 288.848C294.46 289.457 315.018 309.461 338.943 333.301C386.163 380.352 386.382 380.53 399.443 382.572C426.338 386.775 450.012 363.135 445.777 336.305C443.691 323.095 444.836 324.468 390.283 269.717L339.943 219.194V194.967V170.739H356.475C375.047 170.739 378.798 169.855 381.377 164.867C383.355 161.041 383.355 158.437 381.377 154.611C378.799 149.626 375.044 148.739 356.527 148.739H340.047L339.714 99.4894C339.386 51.1314 339.339 50.1214 337.088 43.7394C332.14 29.7094 320.725 15.4894 308.8 8.50144C296.255 1.14944 276.918 -1.91756 262.943 1.22744ZM49.7326 130.644C51.8036 131.708 74.6496 153.873 101.443 180.814C141.861 221.454 150.312 229.486 154.943 231.659L160.443 234.239L243.19 234.739L325.936 235.239L373.944 283.239C400.73 310.02 422.698 332.786 423.64 334.739C425.728 339.069 425.745 347.297 423.674 351.265C419.253 359.735 410.313 363.826 401.106 361.593C396.773 360.542 393.297 357.334 351.943 316.209C322.729 287.158 305.897 271.146 302.943 269.598L298.443 267.239L210.443 266.739C153.674 266.416 121.838 265.879 120.739 265.225C117.139 263.082 24.6896 161.068 22.8786 157.239C18.1376 147.216 22.2066 135.797 32.4426 130.401C36.6456 128.185 45.1776 128.305 49.7326 130.644ZM254.943 335.739V383.739H217.443H179.943V335.739V287.739H217.443H254.943V335.739ZM312.409 406.16C315.926 407.63 318.943 412.052 318.943 415.739C318.943 419.426 315.926 423.848 312.409 425.318C309.553 426.511 294.306 426.739 217.376 426.739C115.791 426.739 120.747 427.061 117.52 420.261C115.561 416.131 115.56 415.348 117.514 411.231C120.73 404.454 115.596 404.787 217.225 404.762C294.323 404.743 309.551 404.966 312.409 406.16Z" fill="white"/>
</svg>
