<svg width="33" height="39" viewBox="0 0 33 39" fill="none" xmlns="http://www.w3.org/2000/svg">
<path d="M0 0V34.9655H13.9615V39H33V24.2069H25.3846V8.85695L17.0255 0H0ZM2.53846 2.68966H15.2308V10.7586H22.8462V24.2069H13.9615V25.5517V32.2759H2.53846V2.68966ZM17.7692 4.59133L21.0514 8.06897H17.7692V4.59133ZM6.34615 13.4483V16.1379H19.0385V13.4483H6.34615ZM6.34615 18.8276V21.5172H19.0385V18.8276H6.34615ZM6.34615 24.2069V26.8966H11.4231V24.2069H6.34615ZM18.1535 26.8966H28.8081L23.4808 30.6605L18.1535 26.8966ZM16.5 28.9611L23.4808 33.8912L30.4615 28.9611V36.3103H16.5V28.9611Z" fill="white"/>
</svg>
