<svg width="23" height="34" viewBox="0 0 23 34" fill="none" xmlns="http://www.w3.org/2000/svg">
<path d="M11.5 0C5.16602 0 0 5.13873 0 11.4393C0 13.2266 0.728733 15.2772 1.71701 17.5164C2.7053 19.7555 3.97808 22.1338 5.27083 24.3481C7.85634 28.7818 10.4618 32.4907 10.4618 32.4907L11.5 34L12.5382 32.4907C12.5382 32.4907 15.1437 28.7818 17.7292 24.3481C19.0219 22.1338 20.2947 19.7555 21.283 17.5164C22.2713 15.2772 23 13.2266 23 11.4393C23 5.13873 17.834 0 11.5 0ZM11.5 2.54206C16.4564 2.54206 20.4444 6.50905 20.4444 11.4393C20.4444 12.4571 19.8954 14.3835 18.967 16.4836C18.0386 18.5838 16.7559 20.9124 15.4931 23.0771C13.4865 26.5228 12.2387 28.3449 11.5 29.4322C10.7613 28.3449 9.51346 26.5228 7.50694 23.0771C6.24414 20.9124 4.96137 18.5838 4.03299 16.4836C3.1046 14.3835 2.55556 12.4571 2.55556 11.4393C2.55556 6.50905 6.54362 2.54206 11.5 2.54206ZM11.5 8.8972C10.0875 8.8972 8.94444 10.0342 8.94444 11.4393C8.94444 12.8443 10.0875 13.9813 11.5 13.9813C12.9125 13.9813 14.0556 12.8443 14.0556 11.4393C14.0556 10.0342 12.9125 8.8972 11.5 8.8972Z" fill="white"/>
</svg>
