<svg width="36" height="36" viewBox="0 0 36 36" fill="none" xmlns="http://www.w3.org/2000/svg">
<path d="M7.85403 0C7.13082 0 6.4184 0.259351 5.82471 0.734827L5.73836 0.778052L5.69518 0.821278L1.37749 5.27347L1.42066 5.31669C0.0875755 6.54861 -0.322605 8.39108 0.254886 9.98501C0.260283 9.99581 0.24949 10.0174 0.254886 10.0282C1.42606 13.3836 4.42146 19.8619 10.2719 25.719C16.144 31.5976 22.7015 34.4774 25.9452 35.7472H25.9883C27.6669 36.3091 29.4857 35.9093 30.781 34.7962L35.1419 30.4305C36.286 29.285 36.286 27.2967 35.1419 26.1512L29.5289 20.5319L29.4857 20.4455C28.3415 19.3 26.3122 19.3 25.168 20.4455L22.4047 23.2119C21.4062 22.731 19.0261 21.4991 16.7485 19.3216C14.4871 17.1604 13.3321 14.6749 12.9057 13.7024L15.6691 10.936C16.8294 9.77428 16.851 7.83996 15.6259 6.6999L15.6691 6.65667L15.5395 6.527L10.0129 0.821278L9.9697 0.778052L9.88335 0.734827C9.28966 0.259351 8.57724 0 7.85403 0ZM7.85403 2.76641C7.95657 2.76641 8.05912 2.81504 8.15627 2.89608L13.6829 8.55858L13.8124 8.68825C13.8017 8.67745 13.8934 8.82333 13.7261 8.99083L10.2719 12.4488L9.62428 13.054L9.92652 13.9185C9.92652 13.9185 11.5133 18.1708 14.8487 21.3532L15.1509 21.6126C18.3622 24.5465 22.1456 26.1512 22.1456 26.1512L23.0091 26.5402L27.1109 22.4338C27.3484 22.1961 27.3052 22.1961 27.5427 22.4338L33.1989 28.0963C33.4364 28.3341 33.4364 28.2476 33.1989 28.4854L28.9676 32.7214C28.3307 33.2671 27.6561 33.3806 26.8519 33.1105C23.7216 31.8785 17.639 29.204 12.2149 23.7738C6.74762 18.3004 3.89254 12.0922 2.8455 9.07728C2.63502 8.51535 2.78613 7.68327 3.27727 7.26182L3.36363 7.17537L7.55179 2.89608C7.64894 2.81504 7.75148 2.76641 7.85403 2.76641Z" fill="white"/>
</svg>
