<svg width="36" height="36" viewBox="0 0 36 36" fill="none" xmlns="http://www.w3.org/2000/svg">
<path d="M5.5 0C2.48023 0 0 2.48023 0 5.5V30.5C0 33.5198 2.48023 36 5.5 36H30.5C33.5198 36 36 33.5198 36 30.5V5.5C36 2.48023 33.5198 0 30.5 0H5.5ZM5.5 3H30.5C31.8982 3 33 4.10177 33 5.5V30.5C33 31.8982 31.8982 33 30.5 33H5.5C4.10177 33 3 31.8982 3 30.5V5.5C3 4.10177 4.10177 3 5.5 3ZM7.81641 11.125C7.11741 11.125 7 11.468 7 11.834C7 12.495 7.55073 16.0678 10.5527 20.1758C12.7297 23.1548 15.5977 24.873 18.1367 24.873C19.6747 24.873 19.832 24.4831 19.832 23.8711V21.1465C19.833 20.4125 20.0012 20.291 20.4902 20.291C20.8392 20.291 21.5508 20.519 22.9258 22.123C24.5118 23.973 24.8 24.873 25.709 24.873H28.1094C28.6664 24.873 28.985 24.6405 28.998 24.1875C29.001 24.0725 28.9843 23.9428 28.9473 23.7988C28.7693 23.2708 27.9545 21.978 26.9375 20.748C26.3735 20.067 25.8165 19.3933 25.5605 19.0273C25.3895 18.7883 25.324 18.618 25.332 18.457C25.34 18.287 25.4285 18.1273 25.5605 17.9023C25.5375 17.9023 28.6384 13.5461 28.9414 12.0781C28.9834 11.9401 29.003 11.8113 28.998 11.6973C28.984 11.3653 28.7577 11.125 28.2207 11.125H25.8203C25.2143 11.125 24.9355 11.4924 24.7715 11.8594C24.7715 11.8594 23.2748 14.9388 21.5508 16.9688C20.9918 17.5567 20.7073 17.541 20.4043 17.541C20.2423 17.541 19.832 17.3446 19.832 16.8066V12.0547C19.832 11.4187 19.6741 11.125 19.1621 11.125H14.9004C14.5274 11.125 14.334 11.4179 14.334 11.7129C14.334 12.3239 15.158 12.4706 15.252 14.1836V17.5059C15.252 18.3129 15.1116 18.457 14.8086 18.457C13.9926 18.457 12.3855 15.7075 11.3105 12.1035C11.0775 11.3945 10.8443 11.125 10.2383 11.125H7.81641Z" fill="white"/>
</svg>
