<svg width="36" height="36" viewBox="0 0 36 36" fill="none" xmlns="http://www.w3.org/2000/svg">
<path fill-rule="evenodd" clip-rule="evenodd" d="M30.7559 5.23201C27.3691 1.86066 22.8691 0 18.0762 0C8.19727 0 0.152344 8.00259 0.152344 17.8367C0.146484 20.9806 0.972657 24.0486 2.54297 26.755L0 36L9.50391 33.5152C12.1172 34.9384 15.0703 35.685 18.0703 35.6909H18.0762C27.9551 35.6909 35.9941 27.6883 36 17.8483C36 13.083 34.1367 8.60337 30.7559 5.23201ZM18.0762 32.6753H18.0703C15.3984 32.6753 12.7734 31.9579 10.4883 30.6105L9.94336 30.2897L4.30078 31.7596L5.80664 26.2884L5.45508 25.7285C3.96094 23.3662 3.17578 20.6364 3.17578 17.8367C3.17578 9.66494 9.86133 3.01555 18.082 3.01555C22.0605 3.01555 25.7988 4.56125 28.6113 7.36099C31.4238 10.1666 32.9707 13.8879 32.9707 17.8483C32.9707 26.0259 26.2852 32.6753 18.0762 32.6753ZM26.2441 21.5697C25.7988 21.348 23.5957 20.269 23.1855 20.1231C22.7754 19.9715 22.4766 19.9015 22.1777 20.3448C21.8789 20.7939 21.0234 21.7971 20.7598 22.0946C20.502 22.3863 20.2383 22.4271 19.793 22.2054C19.3418 21.9838 17.9004 21.5113 16.1895 19.989C14.8594 18.8108 13.957 17.3467 13.6992 16.9034C13.4355 16.4543 13.6699 16.2152 13.8926 15.9935C14.0977 15.7952 14.3438 15.4744 14.5664 15.2119C14.7891 14.9553 14.8652 14.7686 15.0176 14.4712C15.1641 14.1737 15.0879 13.9112 14.9766 13.6896C14.8652 13.4679 13.9688 11.269 13.5938 10.3765C13.2305 9.50745 12.8613 9.62994 12.5859 9.61244C12.3281 9.60078 12.0293 9.60078 11.7305 9.60078C11.4316 9.60078 10.9453 9.7116 10.5352 10.1607C10.125 10.604 8.9707 11.6831 8.9707 13.8762C8.9707 16.0693 10.5762 18.1925 10.7988 18.49C11.0215 18.7816 13.957 23.2845 18.4512 25.2152C19.5176 25.676 20.3496 25.9501 21 26.1542C22.0723 26.4925 23.0508 26.4459 23.8242 26.3351C24.6855 26.2067 26.4727 25.256 26.8477 24.2119C27.2168 23.1737 27.2168 22.2813 27.1055 22.0946C26.9941 21.908 26.6953 21.7971 26.2441 21.5697Z" fill="white"/>
</svg>
